<?xml version="1.0" standalone="no"?><svg xmlns="http://www.w3.org/2000/svg" viewBox="0 0 1440 320"><path fill="#2bace2" fill-opacity="1" d="M0,256L40,261.3C80,267,160,277,240,261.3C320,245,400,203,480,202.7C560,203,640,245,720,224C800,203,880,117,960,96C1040,75,1120,117,1200,160C1280,203,1360,245,1400,266.7L1440,288L1440,320L1400,320C1360,320,1280,320,1200,320C1120,320,1040,320,960,320C880,320,800,320,720,320C640,320,560,320,480,320C400,320,320,320,240,320C160,320,80,320,40,320L0,320Z"></path></svg>