<svg xmlns="http://www.w3.org/2000/svg" viewBox="0 0 1440 320"><path fill="#2bace2" fill-opacity="1" d="M0,320L26.7,298.7C53.3,277,107,235,160,181.3C213.3,128,267,64,320,58.7C373.3,53,427,107,480,133.3C533.3,160,587,160,640,176C693.3,192,747,224,800,208C853.3,192,907,128,960,128C1013.3,128,1067,192,1120,229.3C1173.3,267,1227,277,1280,256C1333.3,235,1387,181,1413,154.7L1440,128L1440,320L1413.3,320C1386.7,320,1333,320,1280,320C1226.7,320,1173,320,1120,320C1066.7,320,1013,320,960,320C906.7,320,853,320,800,320C746.7,320,693,320,640,320C586.7,320,533,320,480,320C426.7,320,373,320,320,320C266.7,320,213,320,160,320C106.7,320,53,320,27,320L0,320Z"></path></svg>